<?xml version="1.0" encoding="utf-8"?>
<!-- Generator: Adobe Illustrator 24.0.1, SVG Export Plug-In . SVG Version: 6.00 Build 0)  -->
<svg version="1.1" id="_x30_" xmlns="http://www.w3.org/2000/svg" xmlns:xlink="http://www.w3.org/1999/xlink" x="0px" y="0px"
	 viewBox="0 0 200 200" style="enable-background:new 0 0 200 200;" xml:space="preserve">
<style type="text/css">
	.st0{fill:#080B07;}
</style>
<path id="_x30__4_" class="st0" d="M103.7,71.6c-14,6.7-25,18.1-31.2,32.3c-1.8,4.1,0.1,8.9,4.2,10.7c1,0.5,2.1,0.7,3.2,0.7
	c3.1,0,6.1-1.8,7.4-4.9c4.6-10.6,12.9-19.2,23.3-24.1c4-1.9,5.7-6.8,3.8-10.8C112.5,71.4,107.7,69.6,103.7,71.6z"/>
<path id="_x30__3_" class="st0" d="M62.3,183.5h-30c-8.2,0-14.8-6.7-14.8-14.8V33.3c0-8.2,6.7-14.8,14.8-14.8h122.8
	c8.2,0,14.8,6.7,14.8,14.8v12.1c0,3.5,5.3,6.6,8.8,6.6c3.5,0,8.8-3.1,8.8-6.6V27.3c0-15.1-12.3-27.3-27.3-27.3H27.3
	C12.3,0,0,12.3,0,27.3v145.3C0,187.7,12.3,200,27.3,200h35c3.5,0,5.9-5,5.9-8.5C68.2,188,65.8,183.5,62.3,183.5L62.3,183.5z"/>
<path id="_x30__2_" class="st0" d="M157.2,157.1c3.8-3.8,10.1-3.8,13.9,0l0.9,0.9c3.8-5,7-10.5,9.5-16.3c3.9-9.2,5.9-19.1,5.9-29.2
	s-2-19.9-5.9-29.2c-3.8-8.9-9.2-17-16.1-23.8c-6.8-6.8-14.9-12.3-23.8-16.1c-9.2-3.9-19.1-5.9-29.2-5.9s-19.9,2-29.2,5.9
	c-8.9,3.8-17,9.2-23.8,16.1c-6.8,6.8-12.3,14.9-16.1,23.8c-3.9,9.2-5.9,19.1-5.9,29.2s2,19.9,5.9,29.2c3.8,8.9,9.2,17,16.1,23.8
	c6.9,6.9,14.9,12.3,23.8,16.1c9.2,3.9,19.1,5.9,29.2,5.9s19.9-2,29.2-5.9c5.9-2.5,11.4-5.7,16.5-9.6l-0.9-0.9
	C153.4,167.2,153.4,160.9,157.2,157.1L157.2,157.1z M112.5,169c-32.1,0-58-26.9-56.5-59.3c1.4-29,24.9-52.4,53.8-53.8
	c32.4-1.5,59.3,24.4,59.3,56.5C169,143.7,143.7,169,112.5,169z"/>
<path id="_x30__1_" class="st0" d="M197.3,183.2L172,158l-0.9-0.9c-3.8-3.8-10.1-3.8-13.9,0c-3.8,3.8-3.8,10.1,0,13.9l0.9,0.9
	l25.2,25.2c3.8,3.8,10.1,3.8,13.9,0C201.1,193.3,201.1,187.1,197.3,183.2L197.3,183.2z"/>
</svg>
