<?xml version="1.0" encoding="utf-8"?>
<!-- Generator: Adobe Illustrator 24.0.1, SVG Export Plug-In . SVG Version: 6.00 Build 0)  -->
<svg version="1.1" id="_x31_" xmlns="http://www.w3.org/2000/svg" xmlns:xlink="http://www.w3.org/1999/xlink" x="0px" y="0px"
	 viewBox="0 0 200.2 200" style="enable-background:new 0 0 200.2 200;" xml:space="preserve">
<style type="text/css">
	.st0{fill:#000000;}
</style>
<path id="_x31__1_" class="st0" d="M194.8,30.1L125,100l69.9,69.9l0,0c3.2,3.2,5.2,7.6,5.2,12.5c0,9.7-7.9,17.6-17.6,17.6
	c-4.9,0-9.3-2-12.5-5.2l0,0L100,125l-69.9,69.9l0,0c-3.2,3.2-7.6,5.2-12.5,5.2C7.9,200,0,192.1,0,182.4c0-4.9,2-9.3,5.2-12.5l0,0
	L75,100L5.2,30.1l0,0C2,26.9,0,22.5,0,17.6C0,7.9,7.9,0,17.6,0c4.9,0,9.3,2,12.5,5.2l0,0L100,75l69.9-69.9l0,0
	C173.1,2,177.5,0,182.4,0c9.7,0,17.6,7.9,17.6,17.6C200,22.5,198,26.9,194.8,30.1L194.8,30.1z"/>
</svg>
