<?xml version="1.0" encoding="utf-8"?>
<!-- Generator: Adobe Illustrator 24.0.1, SVG Export Plug-In . SVG Version: 6.00 Build 0)  -->
<svg version="1.1" id="_x30_" xmlns="http://www.w3.org/2000/svg" xmlns:xlink="http://www.w3.org/1999/xlink" x="0px" y="0px"
	 viewBox="0 0 200 200" style="enable-background:new 0 0 200 200;" xml:space="preserve">
<style type="text/css">
	.st0{fill:#080B07;}
</style>
<path id="_x30__1_" class="st0" d="M171.3,119.5c-3.5,2.2-7.6,2.5-10.7,0.7c-4-2.2-6.1-7.5-6.1-14.8V83.6c0-10.5-4.2-18-11.1-20.1
	c-11.8-3.4-20.7,11-24,16.4l-20.8,33.8V72.5c-0.2-9.5-3.3-15.2-9.2-16.9c-3.9-1.1-9.7-0.7-15.3,7.9l-46.6,74.9
	c-6.2-11.9-9.5-25.1-9.5-38.5c0-45.1,36.2-81.8,80.6-81.8c44.4,0,80.6,36.7,80.6,81.8c0,0.1,0,0.2,0,0.2c0,0.1,0,0.2,0,0.2
	C179.5,109.2,176.7,116.1,171.3,119.5L171.3,119.5z M197,100v-0.5C196.8,44.6,152.7,0,98.5,0C44.2,0,0,44.9,0,100s44.2,100,98.5,100
	c24.9,0,48.7-9.5,67-26.7c3.6-3.4,3.8-9.1,0.5-12.8c-3.3-3.6-8.9-3.9-12.5-0.6c0,0-0.1,0.1-0.1,0.1c-14.8,14-34.4,21.8-54.8,21.8
	c-23.8,0-45.2-10.5-60-27.2L80.6,87v31.1c0,15,5.8,19.8,10.7,21.2c4.9,1.4,12.3,0.4,20.1-12.2l23.1-37.5c0.7-1.1,1.3-2.1,2-3.2v19
	c0,14,5.6,25.2,15.4,30.7c8.8,5,19.9,4.5,28.9-1.2C191.7,128,197.6,115.3,197,100L197,100z"/>
</svg>
