<?xml version="1.0" encoding="utf-8"?>
<!-- Generator: Adobe Illustrator 24.0.1, SVG Export Plug-In . SVG Version: 6.00 Build 0)  -->
<svg version="1.1" id="_x30_" xmlns="http://www.w3.org/2000/svg" xmlns:xlink="http://www.w3.org/1999/xlink" x="0px" y="0px"
	 viewBox="0 0 200 200" style="enable-background:new 0 0 200 200;" xml:space="preserve">
<style type="text/css">
	.st0{fill:#080B07;}
</style>
<g id="_x30__1_">
	<path id="_x30__3_" class="st0" d="M151,27.3H85.5c-12.4,0-22.4,10.1-22.4,22.4c0,0,0,0,0,0c0,4.2,3.4,7.6,7.6,7.6
		c0.4,0,0.8,0,1.2-0.1h49.7c12,0,21.8,9.8,21.8,21.8v52.4h0.3c0.6,3.6,3.7,6.4,7.5,6.4c12.4,0,22.4-10.1,22.4-22.4V49.8
		C173.4,37.4,163.4,27.4,151,27.3z"/>
	<path id="_x30__2_" class="st0" d="M115.5,62.1H52.7c0,0,0,0-0.1,0c-13.1,0-23.6,10.6-23.6,23.7v63c0,0,0,0,0,0.1
		c0,13.1,10.6,23.6,23.7,23.6h62.8c13.1,0,23.9-10.6,23.7-23.7v-63c0,0,0,0,0-0.1C139.2,72.7,128.6,62.1,115.5,62.1z"/>
</g>
</svg>
