<?xml version="1.0" encoding="utf-8"?>
<!-- Generator: Adobe Illustrator 24.0.1, SVG Export Plug-In . SVG Version: 6.00 Build 0)  -->
<svg version="1.1" id="_x30_" xmlns="http://www.w3.org/2000/svg" xmlns:xlink="http://www.w3.org/1999/xlink" x="0px" y="0px"
	 viewBox="0 0 200 200" style="enable-background:new 0 0 200 200;" xml:space="preserve">
<style type="text/css">
	.st0{fill:#080B07;}
</style>
<path id="_x30__2_" class="st0" d="M148.7,139.7c-4.2,0-7.6-3.4-7.6-7.6c0-4.2,3.4-7.6,7.6-7.6c4,0,7.3-3.3,7.3-7.3V51.8
	c0-4-3.3-7.3-7.3-7.3H83.1c-4,0-7.3,3.3-7.3,7.3c0,4.2-3.4,7.6-7.6,7.6c-4.2,0-7.6-3.4-7.6-7.6c0,0,0,0,0,0
	c0-12.4,10.1-22.4,22.4-22.4h65.5c12.4,0,22.4,10.1,22.4,22.4v65.5C171.1,129.7,161,139.7,148.7,139.7L148.7,139.7z"/>
<path id="_x30__1_" class="st0" d="M115.1,172.5H52.4c-13.1,0-23.7-10.6-23.7-23.6c0,0,0,0,0-0.1v-63c0-13.1,10.6-23.7,23.6-23.7
	c0,0,0,0,0.1,0h62.7c13.1,0,23.7,10.6,23.7,23.6c0,0,0,0,0,0.1v63C139.1,161.9,128.2,172.5,115.1,172.5z M52.4,77.2
	c-4.7,0-8.5,3.7-8.6,8.4c0,0,0,0.1,0,0.1v63c0,4.7,3.7,8.5,8.4,8.6c0,0,0.1,0,0.1,0h62.7c4.7,0,8.5-3.7,8.6-8.4c0,0,0-0.1,0-0.1v-63
	c0-4.7-3.7-8.5-8.4-8.6c0,0-0.1,0-0.1,0L52.4,77.2z"/>
</svg>
