<?xml version="1.0" encoding="utf-8"?>
<!-- Generator: Adobe Illustrator 24.0.1, SVG Export Plug-In . SVG Version: 6.00 Build 0)  -->
<svg version="1.1" id="_x30_" xmlns="http://www.w3.org/2000/svg" xmlns:xlink="http://www.w3.org/1999/xlink" x="0px" y="0px"
	 viewBox="0 0 200 200" style="enable-background:new 0 0 200 200;" xml:space="preserve">
<path id="_x30__1_" d="M79.1,30.7l-4.9,0.6c0,0-21.9,2.4-37.9,15.2h-0.2l-0.2,0.2C32.3,50,30.8,54,28.3,60
	c-2.9,7.1-5.4,14.4-7.4,21.9c-4.6,16.8-8.4,37.1-8.4,55.7v1.6l0.8,1.6c5.8,10.2,16.1,16.6,25.6,21.1s17.8,6.8,23.4,7l3.7,0.2l2-3.3
	l6.8-12.1c7.3,1.6,15.6,2.7,25.2,2.7s17.9-1.1,25.2-2.7l6.8,12.1l2,3.3l3.7-0.2c5.7-0.2,13.9-2.6,23.4-7
	c9.5-4.5,19.8-10.9,25.6-21.1l0.8-1.6v-1.6c0-18.6-3.8-38.9-8.4-55.7c-2-7.4-4.5-14.7-7.4-21.9c-2.5-5.9-4-10-7.6-13.3l-0.2-0.2
	h-0.2c-16-12.8-37.9-15.2-37.9-15.2l-4.9-0.6l-1.8,4.5c0,0-1.8,4.6-2.9,9.8c-5.4-0.7-10.8-1.1-16.2-1.2c-3.3,0-9.1,0.2-16.2,1.2
	c-1.1-5.2-2.9-9.8-2.9-9.8L79.1,30.7z M70.5,44.9c0.3,0.9,0.5,1.6,0.8,2.3c-8.1,2-16.7,5-24.6,10l6.6,10.5
	c16.2-10,39.5-11.4,46.7-11.4s30.5,1.5,46.7,11.5l6.6-10.5c-7.9-4.9-16.5-8-24.6-10c0.2-0.7,0.5-1.5,0.8-2.3
	c5.8,1.2,17,3.9,26.2,11.1c-0.1,0,2.3,3.6,4.5,8.8c2.2,5.3,4.6,12.4,6.8,20.3c4.2,15.3,7.5,33.8,7.8,50.2c-3.9,6-11.2,11.4-18.9,15
	c-4.8,2.3-10,3.9-15.2,4.9l-3.1-5.3c1.9-0.7,3.7-1.4,5.3-2.1c9.6-4.2,14.8-8.8,14.8-8.8l-8.2-9.4c0,0-3.5,3.2-11.7,6.8
	s-20.7,7.2-37.7,7.2s-29.5-3.6-37.7-7.2c-8.2-3.6-11.7-6.8-11.7-6.8l-8.2,9.4c0,0,5.2,4.6,14.8,8.8c1.6,0.7,3.4,1.5,5.3,2.1
	l-3.1,5.3c-5.3-1-10.4-2.6-15.2-4.9c-7.7-3.6-15-9-18.9-15c0.3-16.4,3.6-34.9,7.8-50.2c1.9-6.9,4.2-13.7,6.8-20.3
	c2.1-5.2,4.5-8.8,4.5-8.8C53.5,48.8,64.7,46.1,70.5,44.9z M78.1,87.5c-4.8,0-9.1,2.8-11.7,6.3s-3.9,7.8-3.9,12.5s1.3,9,3.9,12.5
	c2.6,3.5,6.9,6.3,11.7,6.3s9.1-2.8,11.7-6.3s3.9-7.8,3.9-12.5s-1.3-9-3.9-12.5S83,87.5,78.1,87.5z M121.9,87.5
	c-4.8,0-9.1,2.8-11.7,6.3s-3.9,7.8-3.9,12.5s1.3,9,3.9,12.5s6.9,6.3,11.7,6.3s9.1-2.8,11.7-6.3s3.9-7.8,3.9-12.5s-1.3-9-3.9-12.5
	S126.7,87.5,121.9,87.5z M78.1,100c0.3,0,0.8,0.1,1.6,1.2c0.8,1,1.6,2.9,1.6,5.1s-0.8,4-1.6,5.1c-0.8,1-1.2,1.2-1.6,1.2
	s-0.8-0.1-1.6-1.2c-1-1.5-1.6-3.3-1.6-5.1c0-2.2,0.8-4,1.6-5.1C77.3,100.1,77.8,100,78.1,100z M121.9,100c0.3,0,0.8,0.1,1.6,1.2
	c0.8,1,1.6,2.9,1.6,5.1s-0.8,4-1.6,5.1c-0.8,1-1.2,1.2-1.6,1.2s-0.8-0.1-1.6-1.2c-1-1.5-1.6-3.3-1.6-5.1c0-2.2,0.8-4,1.6-5.1
	S121.5,100,121.9,100z"/>
</svg>
