<?xml version="1.0" encoding="utf-8"?>
<!-- Generator: Adobe Illustrator 24.0.1, SVG Export Plug-In . SVG Version: 6.00 Build 0)  -->
<svg version="1.1" id="_x30__2_" xmlns="http://www.w3.org/2000/svg" xmlns:xlink="http://www.w3.org/1999/xlink" x="0px" y="0px"
	 viewBox="0 0 200 200" style="enable-background:new 0 0 200 200;" xml:space="preserve">
<path id="_x30_" d="M116.3,200H87.5c-7.8,0-14.1-6.3-14.1-14.1v-70.3H53.1c-7.8,0-14.1-6.3-14.1-14.1V80c0-7.8,6.3-14.4,14.1-14.4
	h20.3V48.4C73.4,20,92.8,0,120.3,0h26.6c4.4,0,7.8,3.4,7.8,7.8v40.6c0,4.4-3.4,7.8-7.8,7.8h-17.2v9.4h17.2c4.4,0.3,8.4,2.2,10.9,5.6
	s3.8,7.5,2.8,11.9l-4.1,20.9c-0.9,6.6-6.6,11.6-13.8,11.6h-13.4v70.3C129.7,193.8,123.4,200,116.3,200z M89.1,184.4h25v-76.6
	c0-4.4,3.4-7.8,7.8-7.8h19.7l3.8-18.8H122c-4.4,0-7.8-3.4-7.8-7.8v-25c0-4.4,3.4-7.8,7.8-7.8h17.2v-25h-18.8
	c-19.1,0-31.3,12.8-31.3,32.8v25c0,4.4-3.4,7.8-7.8,7.8H54.7V100h26.6c4.4,0,7.8,3.4,7.8,7.8C89.1,107.8,89.1,184.4,89.1,184.4z"/>
</svg>
