<?xml version="1.0" encoding="utf-8"?>
<!-- Generator: Adobe Illustrator 24.0.1, SVG Export Plug-In . SVG Version: 6.00 Build 0)  -->
<svg version="1.1" id="_x30_" xmlns="http://www.w3.org/2000/svg" xmlns:xlink="http://www.w3.org/1999/xlink" x="0px" y="0px"
	 viewBox="0 0 200 200" style="enable-background:new 0 0 200 200;" xml:space="preserve">
<style type="text/css">
	.st0{fill:#FF696A;}
</style>
<path id="_x30__1_" class="st0" d="M100,12.8c-48.2,0-87.2,39.1-87.2,87.2c0,48.2,39.1,87.2,87.2,87.2s87.2-39.1,87.2-87.2
	C187.2,51.8,148.2,12.8,100,12.8L100,12.8z M140,124.6c1.3,1.3,1.3,3.5,0,4.8L129.4,140c-1.3,1.3-3.5,1.3-4.8,0L100,115.4L75.4,140
	c-1.3,1.3-3.5,1.3-4.8,0L60,129.4c-1.3-1.3-1.3-3.5,0-4.8L84.6,100L60,75.4c-1.3-1.3-1.3-3.5,0-4.8L70.6,60c1.3-1.3,3.5-1.3,4.8,0
	L100,84.6L124.6,60c1.3-1.3,3.5-1.3,4.8,0L140,70.6c1.3,1.3,1.3,3.5,0,4.8L115.4,100L140,124.6L140,124.6z"/>
</svg>
