<?xml version="1.0" encoding="utf-8"?>
<!-- Generator: Adobe Illustrator 24.0.1, SVG Export Plug-In . SVG Version: 6.00 Build 0)  -->
<svg version="1.1" id="_x30_" xmlns="http://www.w3.org/2000/svg" xmlns:xlink="http://www.w3.org/1999/xlink" x="0px" y="0px"
	 viewBox="0 0 200 200" style="enable-background:new 0 0 200 200;" xml:space="preserve">
<style type="text/css">
	.st0{fill:#F14832;}
</style>
<path id="_x30__1_" class="st0" d="M81,191.7c0,0-81.3-17.9-45-106.6c0,0,8.3,9.9,7.1,14.6c0,0,6.5-22.4,20.4-35.8
	c12-11.5,24.2-43.9,13-55.5c0,0,55.6,11.7,61.8,70.1c0,0,7.1-18.6,21.7-20.5c-2.8,8.3-2.8,17.3,0,25.6c0,0,46.1,78.9-33.3,105.5
	c0,0,23.8-27-26.7-73.4c0,0-11.9,25-19,33.6C81,149.3,61.1,171.6,81,191.7L81,191.7z"/>
</svg>
