<?xml version="1.0" encoding="utf-8"?>
<!-- Generator: Adobe Illustrator 24.0.1, SVG Export Plug-In . SVG Version: 6.00 Build 0)  -->
<svg version="1.1" id="_x30_" xmlns="http://www.w3.org/2000/svg" xmlns:xlink="http://www.w3.org/1999/xlink" x="0px" y="0px"
	 viewBox="0 0 200 200" style="enable-background:new 0 0 200 200;" xml:space="preserve">
<path id="_x30__2_" d="M100,59.9c-22.2,0-40.1,17.9-40.1,40.1s17.9,40.1,40.1,40.1s40.1-17.9,40.1-40.1S122.2,59.9,100,59.9z
	 M100,126c-14.3,0-26-11.7-26-26s11.7-26,26-26s26,11.7,26,26S114.3,126,100,126z M141.7,49c-5.2,0-9.4,4.2-9.4,9.4s4.2,9.4,9.4,9.4
	s9.4-4.2,9.4-9.4C151,53.1,146.9,49,141.7,49z"/>
<path id="_x30__1_" d="M178.1,100c0-10.8,0.1-21.5-0.5-32.2C177,55.3,174.1,44.2,165,35c-9.2-9.2-20.2-12-32.7-12.6
	c-10.8-0.6-21.5-0.5-32.2-0.5c-10.8,0-21.5-0.1-32.2,0.5C55.3,23,44.2,25.9,35.1,35c-9.2,9.2-12,20.2-12.6,32.7
	C21.9,78.6,22,89.2,22,100s-0.1,21.5,0.5,32.2c0.6,12.5,3.5,23.6,12.6,32.7c9.2,9.2,20.2,12,32.7,12.6c10.8,0.6,21.5,0.5,32.2,0.5
	c10.8,0,21.5,0.1,32.2-0.5c12.5-0.6,23.6-3.5,32.7-12.6c9.2-9.2,12-20.2,12.6-32.7C178.2,121.5,178.1,110.8,178.1,100L178.1,100z
	 M160.9,146.1c-1.4,3.6-3.1,6.2-5.9,8.9c-2.8,2.8-5.4,4.5-8.9,5.9c-10.3,4.1-34.7,3.2-46.1,3.2S64.2,165,53.9,161
	c-3.6-1.4-6.2-3.1-8.9-5.9c-2.8-2.8-4.5-5.4-5.9-8.9C35,135.9,36,111.5,36,100.1s-1-35.9,3.1-46.2c1.4-3.6,3.1-6.2,5.9-8.9
	c2.8-2.7,5.4-4.5,8.9-5.9C64.2,35,88.6,36,100,36s35.8-0.9,46.1,3.1c3.6,1.4,6.2,3.1,8.9,5.9c2.8,2.8,4.5,5.4,5.9,8.9
	C165,64.2,164,88.6,164,100S165,135.8,160.9,146.1z"/>
</svg>
