<?xml version="1.0" encoding="utf-8"?>
<!-- Generator: Adobe Illustrator 24.0.1, SVG Export Plug-In . SVG Version: 6.00 Build 0)  -->
<svg version="1.1" id="_x30_" xmlns="http://www.w3.org/2000/svg" xmlns:xlink="http://www.w3.org/1999/xlink" x="0px" y="0px"
	 viewBox="0 0 200 200" style="enable-background:new 0 0 200 200;" xml:space="preserve">
<style type="text/css">
	.st0{fill:#A4A4A4;}
</style>
<path id="_x30__1_" class="st0" d="M149.5,71.1h-8.3V54.6c0-22.8-18.5-41.3-41.3-41.3S58.7,31.8,58.7,54.6v16.5h-8.3
	c-9.1,0-16.5,7.4-16.5,16.5v82.6c0,9.1,7.4,16.5,16.5,16.5h99.1c9.1,0,16.5-7.4,16.5-16.5l0-82.6C166,78.5,158.7,71.1,149.5,71.1z
	 M100,145.4c-9.1,0-16.5-7.4-16.5-16.5s7.4-16.5,16.5-16.5s16.5,7.4,16.5,16.5C116.5,138,109.1,145.4,100,145.4z M125.6,71.1H74.4
	V54.6C74.4,40.5,85.9,29,100,29s25.6,11.5,25.6,25.6V71.1z"/>
</svg>
