<?xml version="1.0" encoding="utf-8"?>
<!-- Generator: Adobe Illustrator 24.0.1, SVG Export Plug-In . SVG Version: 6.00 Build 0)  -->
<svg version="1.1" id="_x30_" xmlns="http://www.w3.org/2000/svg" xmlns:xlink="http://www.w3.org/1999/xlink" x="0px" y="0px"
	 viewBox="0 0 200 200" style="enable-background:new 0 0 200 200;" xml:space="preserve">
<style type="text/css">
	.st0{fill:#1E1E1E;}
</style>
<path id="_x30__1_" class="st0" d="M90.3,72.5l36-57.7c1.7-2.7,5.2-3.7,8.1-2.3l62.2,30.8c2.4,1.2,3.8,3.8,3.4,6.4
	c0,0.3,0,0.5,0.1,0.8v132.8c0,3.5-2.8,6.2-6.3,6.2c-1,0-1.9-0.2-2.8-0.7l-62.5-31.5c-1.4-0.7-2.5-1.9-3-3.3L75,129v54.3
	c0,3.5-2.8,6.2-6.3,6.2c-1,0-1.9-0.2-2.8-0.7L3.4,157.2c-2.1-1-3.4-3.2-3.4-5.5V17.3C0,13.8,2.8,11,6.3,11c1,0,1.9,0.2,2.8,0.7
	l62.5,31.7c1.8,0.9,3,2.6,3.4,4.6L90.3,72.5L90.3,72.5z M97.6,84.3l5.3,8.6l28.5,45.3l53.3-86.7l-51-25.2L97.6,84.3z M92.4,99.5
	L85,87.7c-0.2-0.2-0.3-0.5-0.4-0.8L75,71.7v43.4l39.3,19.5L92.4,99.5L92.4,99.5z M62.5,52.8l-50-25.3v120.4l50,25.3V52.8L62.5,52.8z
	 M187.5,72.6l-47.4,76.7l47.4,23.9V72.6z"/>
</svg>
