<?xml version="1.0" encoding="utf-8"?>
<!-- Generator: Adobe Illustrator 24.0.1, SVG Export Plug-In . SVG Version: 6.00 Build 0)  -->
<svg version="1.1" id="_x31_" xmlns="http://www.w3.org/2000/svg" xmlns:xlink="http://www.w3.org/1999/xlink" x="0px" y="0px"
	 viewBox="0 0 200 200" style="enable-background:new 0 0 200 200;" xml:space="preserve">
<style type="text/css">
	.st0{fill:#FFFFFF;}
</style>
<path id="_x31__1_" class="st0" d="M179.4,86.7h-159c-7.3,0-13.3,6-13.3,13.3c0,7.3,6,13.3,13.3,13.3h159c7.3,0,13.3-6,13.3-13.3
	C192.7,92.7,186.7,86.7,179.4,86.7L179.4,86.7z M179.3,146.6h-159c-7.3,0-13.3,6-13.3,13.3c0,7.3,6,13.3,13.3,13.3h159
	c7.3,0,13.3-6,13.3-13.3C192.6,152.6,186.7,146.6,179.3,146.6z M179.5,27.4h-159c-7.3,0-13.3,6-13.3,13.3c0,7.3,6,13.3,13.3,13.3
	h159c7.3,0,13.3-6,13.3-13.3C192.9,33.4,186.9,27.4,179.5,27.4L179.5,27.4z"/>
</svg>
