<?xml version="1.0" encoding="utf-8"?>
<!-- Generator: Adobe Illustrator 24.0.1, SVG Export Plug-In . SVG Version: 6.00 Build 0)  -->
<svg version="1.1" id="_x30_" xmlns="http://www.w3.org/2000/svg" xmlns:xlink="http://www.w3.org/1999/xlink" x="0px" y="0px"
	 viewBox="0 0 200 200" style="enable-background:new 0 0 200 200;" xml:space="preserve">
<path id="_x30__1_" d="M32.1,64.6c0-18.7,15.4-33.8,34.5-33.8c19.1,0,34.5,15.1,34.5,33.8S85.7,98.5,66.6,98.5S32.1,83.3,32.1,64.6z
	 M79.5,157.9v-2.3c0-17.2,9-32.4,22.5-41.3c-6.1-3-12.8-4.5-19.6-4.5H53.7c-24.6,0-44.6,19.5-44.6,43.7v2.8c0,9.9,20,9.9,44.6,9.9
	h27.5C80.1,163.5,79.5,160.7,79.5,157.9z M140.8,53.8c-15.8,0-28.6,12.6-28.6,28.1s12.8,28.1,28.6,28.1c15.8,0,28.6-12.6,28.6-28.1
	S156.6,53.8,140.8,53.8z M140.8,53.8c-15.8,0-28.6,12.6-28.6,28.1s12.8,28.1,28.6,28.1c15.8,0,28.6-12.6,28.6-28.1
	S156.6,53.8,140.8,53.8z M130.1,119.3c-20.4,0-37,16.2-37,36.2v2.3c0,8.2,16.6,8.2,37,8.2h23.9c20.4,0,37-0.3,37-8.2v-2.3
	c0-20-16.6-36.2-37-36.2H130.1L130.1,119.3z"/>
</svg>
