<?xml version="1.0" encoding="utf-8"?>
<!-- Generator: Adobe Illustrator 24.0.1, SVG Export Plug-In . SVG Version: 6.00 Build 0)  -->
<svg version="1.1" id="_x30__1_" xmlns="http://www.w3.org/2000/svg" xmlns:xlink="http://www.w3.org/1999/xlink" x="0px" y="0px"
	 viewBox="0 0 200 200" style="enable-background:new 0 0 200 200;" xml:space="preserve">
<path id="_x30_" d="M50,125c0-6.9,5.6-12.5,12.5-12.5S75,118.1,75,125c0,6.9-5.6,12.5-12.5,12.5S50,131.9,50,125z M125,125
	c0-6.9,5.6-12.5,12.5-12.5S150,118.1,150,125c0,6.9-5.6,12.5-12.5,12.5S125,131.9,125,125z M125.6,151.7c3.2-2.5,7.9-2,10.4,1.2
	s2,7.9-1.2,10.4c-9,7.1-22.6,11.6-34.8,11.6s-25.8-4.6-34.8-11.6c-3.2-2.5-3.8-7.2-1.2-10.4c2.5-3.2,7.2-3.8,10.4-1.2
	c5.2,4.1,15.4,8.4,25.6,8.4C110.2,160.2,120.5,155.8,125.6,151.7L125.6,151.7z M200,100c0-13.8-11.2-25-25-25
	c-9.4,0-17.6,5.2-21.8,12.9c-12.8-7-28.5-11.6-45.6-12.6l14.9-33.5l28.6,8.2c2.6,7.3,9.5,12.5,17.7,12.5c10.4,0,18.8-8.4,18.8-18.8
	S179.1,25,168.7,25c-7.1,0-13.3,4-16.5,9.9l-31.8-9.2c-3.6-1-7.3,0.7-8.8,4.1L91.3,75.3C74.7,76.5,59.4,81,46.9,87.9
	C42.6,80.2,34.4,75,25,75C11.2,75,0,86.2,0,100c0,10.2,6.1,19,14.9,22.9c-1.6,4.7-2.4,9.6-2.4,14.6C12.5,172,51.7,200,100,200
	s87.5-28,87.5-62.5c0-5-0.8-9.9-2.4-14.6C193.9,119,200,110.2,200,100L200,100z M168.8,36.7c3.9,0,7,3.1,7,7s-3.1,7-7,7s-7-3.1-7-7
	S164.9,36.7,168.8,36.7z M12.5,100c0-6.9,5.6-12.5,12.5-12.5c5,0,9.3,2.9,11.3,7.2c-6.5,5-11.9,10.7-16,16.9
	C15.8,109.7,12.5,105.2,12.5,100L12.5,100z M100,185.2c-40.1,0-72.7-21.3-72.7-47.7S59.9,89.8,100,89.8s72.7,21.3,72.7,47.7
	S140.1,185.2,100,185.2z M179.7,111.6c-4-6.3-9.4-12-16-16.9c2-4.2,6.3-7.2,11.3-7.2c6.9,0,12.5,5.6,12.5,12.5
	C187.5,105.2,184.2,109.7,179.7,111.6L179.7,111.6z"/>
</svg>
