<?xml version="1.0" encoding="utf-8"?>
<!-- Generator: Adobe Illustrator 24.0.1, SVG Export Plug-In . SVG Version: 6.00 Build 0)  -->
<svg version="1.1" id="_x30_" xmlns="http://www.w3.org/2000/svg" xmlns:xlink="http://www.w3.org/1999/xlink" x="0px" y="0px"
	 viewBox="0 0 200 200" style="enable-background:new 0 0 200 200;" xml:space="preserve">
<style type="text/css">
	.st0{fill:#080B07;}
</style>
<path id="_x30__1_" class="st0" d="M164.9,100c0,35.8-29.1,64.9-64.9,64.9S35.1,135.8,35.1,100S64.2,35.1,100,35.1
	S164.9,64.2,164.9,100z M136.6,83.9l-7.9-7.9c-0.5-0.5-1.4-0.5-1.9,0c0,0,0,0,0,0l-37.5,37.5L73.4,97.7c-0.5-0.5-1.4-0.5-1.9,0
	c0,0,0,0,0,0l-7.9,7.9c-0.5,0.5-0.5,1.4,0,1.9c0,0,0,0,0,0l25.6,25.6l47.3-47.3C137.1,85.3,137.1,84.5,136.6,83.9
	C136.6,84,136.6,84,136.6,83.9L136.6,83.9z"/>
</svg>
