<?xml version="1.0" encoding="utf-8"?>
<!-- Generator: Adobe Illustrator 24.0.1, SVG Export Plug-In . SVG Version: 6.00 Build 0)  -->
<svg version="1.1" id="_x30_" xmlns="http://www.w3.org/2000/svg" xmlns:xlink="http://www.w3.org/1999/xlink" x="0px" y="0px"
	 viewBox="0 0 200 200" style="enable-background:new 0 0 200 200;" xml:space="preserve">
<path id="_x30__2_" d="M187.5,99.5c0-0.4,0-0.9,0-1.5c0-1.6-0.1-3.4-0.1-5.3c-0.2-5.4-0.4-10.9-0.9-16c-0.6-7.1-1.4-12.9-2.6-17.3
	c-2.5-9.4-9.8-16.7-19.2-19.2c-5.5-1.5-16.3-2.4-31.6-3c-7.2-0.3-15-0.4-22.8-0.5c-2.7,0-5.2-0.1-7.5-0.1h-5.7c-2.3,0-4.8,0-7.5,0.1
	c-7.8,0.1-15.5,0.3-22.8,0.5c-15.2,0.6-26.1,1.5-31.6,3C26,42.6,18.6,50,16.1,59.4c-1.2,4.4-2,10.3-2.6,17.3
	c-0.4,5.1-0.7,10.5-0.9,16c-0.1,1.9-0.1,3.7-0.1,5.3c0,0.6,0,1.1,0,1.5v1.1c0,0.4,0,0.9,0,1.5c0,1.6,0.1,3.4,0.1,5.3
	c0.2,5.4,0.4,10.9,0.9,16c0.6,7.1,1.4,12.9,2.6,17.3c2.5,9.4,9.8,16.7,19.2,19.2c5.5,1.5,16.3,2.4,31.6,3c7.2,0.3,15,0.4,22.8,0.5
	c2.7,0,5.2,0.1,7.5,0.1h5.7c2.3,0,4.8,0,7.5-0.1c7.8-0.1,15.5-0.3,22.8-0.5c15.2-0.6,26.1-1.5,31.6-3c9.4-2.5,16.7-9.9,19.2-19.2
	c1.2-4.4,2-10.3,2.6-17.3c0.4-5.1,0.7-10.5,0.9-16c0.1-1.9,0.1-3.7,0.1-5.3c0-0.6,0-1.1,0-1.5V100L187.5,99.5L187.5,99.5z
	 M173.4,100.5c0,0.4,0,0.9,0,1.4c0,1.5-0.1,3.2-0.1,5c-0.1,5.2-0.4,10.4-0.8,15.2c-0.5,6.3-1.3,11.4-2.2,14.9
	c-1.2,4.5-4.8,8.1-9.3,9.3c-4.1,1.1-14.4,2-28.5,2.5c-7.1,0.3-14.8,0.4-22.4,0.5c-2.7,0-5.2,0.1-7.4,0.1h-5.6c-2.2,0-4.7,0-7.4-0.1
	c-7.6-0.1-15.3-0.3-22.4-0.5c-14-0.5-24.4-1.4-28.5-2.5c-4.5-1.2-8-4.8-9.3-9.3c-0.9-3.5-1.7-8.6-2.2-14.9c-0.4-4.8-0.7-10-0.8-15.2
	c-0.1-1.8-0.1-3.5-0.1-5c0-0.5,0-1,0-1.4v-0.6v-0.4c0-0.4,0-0.9,0-1.4c0-1.5,0.1-3.2,0.1-5c0.1-5.2,0.4-10.4,0.8-15.2
	c0.5-6.3,1.3-11.4,2.2-14.9c1.2-4.5,4.8-8.1,9.3-9.3c4.1-1.1,14.4-2,28.5-2.5c7.1-0.3,14.8-0.4,22.4-0.5c2.7,0,5.2-0.1,7.4-0.1h5.6
	c2.2,0,4.7,0,7.4,0.1c7.6,0.1,15.3,0.3,22.4,0.5c14,0.5,24.4,1.4,28.5,2.5c4.5,1.2,8,4.8,9.3,9.3c0.9,3.5,1.7,8.6,2.2,14.9
	c0.4,4.8,0.7,10,0.8,15.2c0.1,1.8,0.1,3.5,0.1,5c0,0.5,0,1,0,1.4V100.5z"/>
<path id="_x30__1_" d="M82.6,126.2l45.3-26.4l-45.3-26C82.6,73.8,82.6,126.2,82.6,126.2z"/>
</svg>
